<mxfile host="app.diagrams.net" modified="2024-03-27T10:01:30.728Z" agent="Mozilla/5.0 (X11; Linux x86_64) AppleWebKit/537.36 (KHTML, like Gecko) Chrome/121.0.0.0 Safari/537.36" version="23.1.1" etag="2cHf55lz0IxsyTlZHI44" type="github">
  <diagram name="第 1 页" id="9z-E5gdKn9Cgs7w9vnW5">
    <mxGraphModel>
      <root>
        <mxCell id="0" />
        <mxCell id="1" parent="0" />
      </root>
    </mxGraphModel>
  </diagram>
</mxfile>
